<svg height="496pt" viewBox="0 0 496 496" width="496pt" xmlns="http://www.w3.org/2000/svg" xmlns:xlink="http://www.w3.org/1999/xlink"><linearGradient id="a" gradientUnits="userSpaceOnUse" x1="248" x2="248" y1="496" y2="0"><stop offset="0" stop-color="#2667FF"/><stop offset="1" stop-color="#ADD7F6"/></linearGradient><path d="m480 480h16v16h-16zm-464 0h-16v16h16zm480-128c0 55.734375-31.894531 104.070312-78.328125 128h46.328125v16h-432v-16h64v-96h-80c-8.824219 0-16-7.175781-16-16v-64c0-8.824219 7.175781-16 16-16h42.808594c-1.746094-3.648438-2.808594-7.6875-2.808594-12v-128.472656c0-10.34375 6.59375-19.496094 16.40625-22.765625l55.59375-18.53125v-6.558594c-9.792969-8.792969-16-21.503906-16-35.679687v-15.992188c0-26.472656 21.527344-48 48-48s48 21.527344 48 48v16c0 14.167969-6.207031 26.878906-16 35.679688v5.550781l36.199219 6.035156c3.929687.644531 7.832031 1.742187 11.59375 3.238281l143.183593 57.273438c10.34375 4.132812 17.023438 14.007812 17.023438 25.144531 0 6.589844-2.464844 12.558594-6.390625 17.261719 59.167969 17.90625 102.390625 72.886718 102.390625 137.816406zm-368-288c0 17.648438 14.351562 32 32 32s32-14.351562 32-32v-16c0-17.648438-14.351562-32-32-32s-32 14.351562-32 32zm-105.574219 240 31.359375 20.902344c6.078125 4.050781 14.351563 4.050781 20.4375 0l31.351563-20.902344zm-6.425781 64h96.007812l-.007812-49.054688-28.910156 19.269532c-5.675782 3.785156-12.273438 5.785156-19.089844 5.785156s-13.414062-2-19.089844-5.785156l-28.910156-19.269532zm96 112h40v-216h16v216h40v-320h33.449219l126.117187 47.289062c1.257813.480469 2.5625.710938 3.890625.710938h1.453125c6.113282 0 11.089844-4.96875 11.089844-11.078125 0-4.554687-2.734375-8.601563-6.96875-10.289063l-143.191406-57.273437c-2.679688-1.078125-5.464844-1.847656-8.265625-2.320313l-49.574219-8.261718v-9.578125c-5.015625 1.777343-10.382812 2.800781-16 2.800781s-10.984375-1.023438-16-2.800781v8.570312l-66.527344 22.167969c-3.273437 1.09375-5.472656 4.152344-5.472656 7.589844v128.472656c0 6.617188 5.382812 12 12 12s12-5.382812 12-12v-116h16v128c8.824219 0 16 7.175781 16 16v64c0 8.824219-7.175781 16-16 16zm126.550781-304h-14.550781v110.335938c20.585938-39.953126 59.273438-68.984376 105.183594-76.34375zm47.777344 304c-26.71875-13.769531-48.566406-35.609375-62.328125-62.335938v62.335938zm193.671875-128c0-70.574219-57.425781-128-128-128s-128 57.425781-128 128 57.425781 128 128 128 128-57.425781 128-128zm-136-56v64h40v-16h-24v-48zm8-56c-26.664062 0-52.519531 9.59375-72.824219 27.007812l10.417969 12.144532c15.367188-13.175782 34.429688-21.105469 54.40625-22.792969v23.640625h16v-23.59375c46.550781 3.867188 83.726562 41.042969 87.59375 87.59375h-23.59375v16h23.640625c-1.6875 19.96875-9.609375 39.039062-22.792969 54.398438l12.152344 10.425781c17.40625-20.3125 27-46.167969 27-72.824219 0-61.761719-50.238281-112-112-112zm8 207.640625v-23.640625h-16v23.59375c-46.550781-3.867188-83.726562-41.042969-87.59375-87.59375h23.59375v-16h-23.640625c1.6875-19.96875 9.609375-39.039062 22.792969-54.398438l-12.152344-10.425781c-17.40625 20.3125-27 46.167969-27 72.824219 0 61.761719 50.238281 112 112 112 26.664062 0 52.519531-9.59375 72.824219-27.007812l-10.417969-12.144532c-15.367188 13.183594-34.4375 21.113282-54.40625 22.792969zm0 0" fill="url(#a)"/></svg>