<svg viewBox="0 0 1062 200" xmlns="http://www.w3.org/2000/svg" xmlns:xlink="http://www.w3.org/1999/xlink"><path fill="rgba(59, 40, 204, 1)" d="M 0 147 C 72.5 147 72.5 111 145 111 L 145 111 L 145 0 L 0 0 Z" stroke-width="0"></path> <path fill="rgba(59, 40, 204, 1)" d="M 144 111 C 233 111 233 166 322 166 L 322 166 L 322 0 L 144 0 Z" stroke-width="0"></path> <path fill="rgba(59, 40, 204, 1)" d="M 321 166 C 408.5 166 408.5 122 496 122 L 496 122 L 496 0 L 321 0 Z" stroke-width="0"></path><path fill="rgba(59, 40, 204, 1)" d="M 495 122 C 573 122 573 175 651 175 L 651 175 L 651 0 L 495 0 Z" stroke-width="0"></path><path fill="rgba(59, 40, 204, 1)" d="M 650 175 C 735 175 735 114 820 114 L 820 114 L 820 0 L 650 0 Z" stroke-width="0"></path><path fill="rgba(59, 40, 204, 1)" d="M 819 114 C 889 114 889 157 959 157 L 959 157 L 959 0 L 819 0 Z" stroke-width="0"></path><path fill="rgba(59, 40, 204, 1)" d="M 958 157 C 1010 157 1010 105 1062 105 L 1062 105 L 1062 0 L 958 0 Z" stroke-width="0"></path></svg>